<mxfile host="app.diagrams.net" modified="2022-05-06T04:12:51.069Z" agent="5.0 (Windows NT 10.0; Win64; x64) AppleWebKit/537.36 (KHTML, like Gecko) Chrome/100.0.4896.127 Safari/537.36" etag="y5ag6p6PRApysI5GEZV3" version="18.0.1" type="github" pages="4">
  <diagram id="R5pbdgy3raDnUyslzFBP" name="相交链表">
    <mxGraphModel dx="852" dy="335" grid="1" gridSize="10" guides="1" tooltips="1" connect="1" arrows="1" fold="1" page="1" pageScale="1" pageWidth="827" pageHeight="1169" math="0" shadow="0">
      <root>
        <mxCell id="0" />
        <mxCell id="1" parent="0" />
        <mxCell id="ExQFlnhaNVgse_SdGILA-5" value="" style="edgeStyle=orthogonalEdgeStyle;rounded=0;orthogonalLoop=1;jettySize=auto;html=1;" edge="1" parent="1" source="ExQFlnhaNVgse_SdGILA-1" target="ExQFlnhaNVgse_SdGILA-4">
          <mxGeometry relative="1" as="geometry" />
        </mxCell>
        <mxCell id="ExQFlnhaNVgse_SdGILA-1" value="极端情况检测" style="rounded=1;whiteSpace=wrap;html=1;fillColor=#d5e8d4;strokeColor=#82b366;" vertex="1" parent="1">
          <mxGeometry x="70" y="50" width="120" height="30" as="geometry" />
        </mxCell>
        <mxCell id="ExQFlnhaNVgse_SdGILA-7" value="" style="edgeStyle=orthogonalEdgeStyle;rounded=0;orthogonalLoop=1;jettySize=auto;html=1;" edge="1" parent="1" source="ExQFlnhaNVgse_SdGILA-4" target="ExQFlnhaNVgse_SdGILA-6">
          <mxGeometry relative="1" as="geometry" />
        </mxCell>
        <mxCell id="ExQFlnhaNVgse_SdGILA-11" value="" style="edgeStyle=orthogonalEdgeStyle;rounded=0;orthogonalLoop=1;jettySize=auto;html=1;entryX=0.5;entryY=0;entryDx=0;entryDy=0;" edge="1" parent="1" source="ExQFlnhaNVgse_SdGILA-4" target="ExQFlnhaNVgse_SdGILA-8">
          <mxGeometry relative="1" as="geometry" />
        </mxCell>
        <mxCell id="ExQFlnhaNVgse_SdGILA-4" value="&lt;span style=&quot;&quot;&gt;headA == null || &lt;br&gt;headA == null ?&lt;/span&gt;" style="rhombus;whiteSpace=wrap;html=1;fillColor=#d5e8d4;strokeColor=#82b366;rounded=1;" vertex="1" parent="1">
          <mxGeometry x="65" y="111" width="130" height="65" as="geometry" />
        </mxCell>
        <mxCell id="ExQFlnhaNVgse_SdGILA-6" value="返回null" style="rounded=1;whiteSpace=wrap;html=1;fillColor=#d5e8d4;strokeColor=#82b366;" vertex="1" parent="1">
          <mxGeometry x="234" y="128.5" width="120" height="30" as="geometry" />
        </mxCell>
        <mxCell id="ExQFlnhaNVgse_SdGILA-12" value="" style="edgeStyle=orthogonalEdgeStyle;rounded=0;orthogonalLoop=1;jettySize=auto;html=1;" edge="1" parent="1" source="ExQFlnhaNVgse_SdGILA-8" target="ExQFlnhaNVgse_SdGILA-9">
          <mxGeometry relative="1" as="geometry" />
        </mxCell>
        <mxCell id="ExQFlnhaNVgse_SdGILA-8" value="初始化 nodeA；&lt;br&gt;初始化 nodeB；" style="rounded=1;whiteSpace=wrap;html=1;fillColor=#d5e8d4;strokeColor=#82b366;" vertex="1" parent="1">
          <mxGeometry x="70" y="200" width="120" height="30" as="geometry" />
        </mxCell>
        <mxCell id="ExQFlnhaNVgse_SdGILA-14" value="" style="edgeStyle=orthogonalEdgeStyle;rounded=0;orthogonalLoop=1;jettySize=auto;html=1;" edge="1" parent="1" source="ExQFlnhaNVgse_SdGILA-9" target="ExQFlnhaNVgse_SdGILA-13">
          <mxGeometry relative="1" as="geometry" />
        </mxCell>
        <mxCell id="ExQFlnhaNVgse_SdGILA-18" value="" style="edgeStyle=orthogonalEdgeStyle;rounded=0;orthogonalLoop=1;jettySize=auto;html=1;" edge="1" parent="1" source="ExQFlnhaNVgse_SdGILA-9" target="ExQFlnhaNVgse_SdGILA-16">
          <mxGeometry relative="1" as="geometry" />
        </mxCell>
        <mxCell id="ExQFlnhaNVgse_SdGILA-9" value="nodeA == nodeB？" style="rhombus;whiteSpace=wrap;html=1;fillColor=#d5e8d4;strokeColor=#82b366;rounded=1;" vertex="1" parent="1">
          <mxGeometry x="65" y="260" width="130" height="65" as="geometry" />
        </mxCell>
        <mxCell id="ExQFlnhaNVgse_SdGILA-13" value="返回nodeA" style="rounded=1;whiteSpace=wrap;html=1;fillColor=#d5e8d4;strokeColor=#82b366;" vertex="1" parent="1">
          <mxGeometry x="234" y="277.5" width="120" height="30" as="geometry" />
        </mxCell>
        <mxCell id="ExQFlnhaNVgse_SdGILA-19" value="" style="edgeStyle=orthogonalEdgeStyle;rounded=0;orthogonalLoop=1;jettySize=auto;html=1;" edge="1" parent="1" source="ExQFlnhaNVgse_SdGILA-16" target="ExQFlnhaNVgse_SdGILA-17">
          <mxGeometry relative="1" as="geometry" />
        </mxCell>
        <mxCell id="ExQFlnhaNVgse_SdGILA-24" value="" style="edgeStyle=orthogonalEdgeStyle;rounded=0;orthogonalLoop=1;jettySize=auto;html=1;" edge="1" parent="1" source="ExQFlnhaNVgse_SdGILA-16" target="ExQFlnhaNVgse_SdGILA-23">
          <mxGeometry relative="1" as="geometry" />
        </mxCell>
        <mxCell id="ExQFlnhaNVgse_SdGILA-16" value="是否有链表到头？" style="rhombus;whiteSpace=wrap;html=1;fillColor=#d5e8d4;strokeColor=#82b366;rounded=1;" vertex="1" parent="1">
          <mxGeometry x="65" y="350" width="130" height="65" as="geometry" />
        </mxCell>
        <mxCell id="ExQFlnhaNVgse_SdGILA-20" style="edgeStyle=orthogonalEdgeStyle;rounded=0;orthogonalLoop=1;jettySize=auto;html=1;exitX=0.5;exitY=1;exitDx=0;exitDy=0;entryX=0;entryY=0.5;entryDx=0;entryDy=0;" edge="1" parent="1" source="ExQFlnhaNVgse_SdGILA-17" target="ExQFlnhaNVgse_SdGILA-9">
          <mxGeometry relative="1" as="geometry" />
        </mxCell>
        <mxCell id="ExQFlnhaNVgse_SdGILA-17" value="接到对方头部" style="rounded=1;whiteSpace=wrap;html=1;fillColor=#d5e8d4;strokeColor=#82b366;" vertex="1" parent="1">
          <mxGeometry x="70" y="450" width="120" height="30" as="geometry" />
        </mxCell>
        <mxCell id="ExQFlnhaNVgse_SdGILA-21" value="Yes" style="text;html=1;strokeColor=none;fillColor=none;align=center;verticalAlign=middle;whiteSpace=wrap;rounded=0;" vertex="1" parent="1">
          <mxGeometry x="190" y="116" width="40" height="19" as="geometry" />
        </mxCell>
        <mxCell id="ExQFlnhaNVgse_SdGILA-22" value="Yes" style="text;html=1;strokeColor=none;fillColor=none;align=center;verticalAlign=middle;whiteSpace=wrap;rounded=0;" vertex="1" parent="1">
          <mxGeometry x="194" y="270" width="40" height="19" as="geometry" />
        </mxCell>
        <mxCell id="ExQFlnhaNVgse_SdGILA-25" style="edgeStyle=orthogonalEdgeStyle;rounded=0;orthogonalLoop=1;jettySize=auto;html=1;exitX=0.5;exitY=1;exitDx=0;exitDy=0;" edge="1" parent="1" source="ExQFlnhaNVgse_SdGILA-23">
          <mxGeometry relative="1" as="geometry">
            <mxPoint x="130" y="499.9999999999999" as="targetPoint" />
            <Array as="points">
              <mxPoint x="290" y="500" />
            </Array>
          </mxGeometry>
        </mxCell>
        <mxCell id="ExQFlnhaNVgse_SdGILA-23" value="滑动一位" style="rounded=1;whiteSpace=wrap;html=1;fillColor=#d5e8d4;strokeColor=#82b366;" vertex="1" parent="1">
          <mxGeometry x="230" y="367.5" width="120" height="30" as="geometry" />
        </mxCell>
        <mxCell id="ExQFlnhaNVgse_SdGILA-26" value="Yes" style="text;html=1;strokeColor=none;fillColor=none;align=center;verticalAlign=middle;whiteSpace=wrap;rounded=0;" vertex="1" parent="1">
          <mxGeometry x="120" y="415" width="40" height="19" as="geometry" />
        </mxCell>
      </root>
    </mxGraphModel>
  </diagram>
  <diagram id="u73mp-E6W1epIo33JQKI" name="岛屿数量">
    <mxGraphModel dx="1955" dy="865" grid="1" gridSize="10" guides="1" tooltips="1" connect="1" arrows="1" fold="1" page="1" pageScale="1" pageWidth="827" pageHeight="1169" math="0" shadow="0">
      <root>
        <mxCell id="0" />
        <mxCell id="1" parent="0" />
        <mxCell id="qsvpix-lg48jj5NSU1BT-9" value="" style="edgeStyle=orthogonalEdgeStyle;rounded=0;orthogonalLoop=1;jettySize=auto;html=1;entryX=0.5;entryY=0;entryDx=0;entryDy=0;" edge="1" parent="1" source="qsvpix-lg48jj5NSU1BT-1" target="qsvpix-lg48jj5NSU1BT-2">
          <mxGeometry relative="1" as="geometry" />
        </mxCell>
        <mxCell id="qsvpix-lg48jj5NSU1BT-1" value="初始化 res&lt;br&gt;网格长与宽&lt;br&gt;访问标记网格" style="rounded=1;whiteSpace=wrap;html=1;fillColor=#d5e8d4;strokeColor=#82b366;" vertex="1" parent="1">
          <mxGeometry x="80" y="70" width="120" height="50" as="geometry" />
        </mxCell>
        <mxCell id="qsvpix-lg48jj5NSU1BT-12" value="" style="edgeStyle=orthogonalEdgeStyle;rounded=0;orthogonalLoop=1;jettySize=auto;html=1;entryX=0.5;entryY=0;entryDx=0;entryDy=0;" edge="1" parent="1" source="qsvpix-lg48jj5NSU1BT-2" target="qsvpix-lg48jj5NSU1BT-3">
          <mxGeometry relative="1" as="geometry" />
        </mxCell>
        <mxCell id="qsvpix-lg48jj5NSU1BT-2" value="极端情况检测&lt;br&gt;网格行数与列数" style="rounded=1;whiteSpace=wrap;html=1;fillColor=#d5e8d4;strokeColor=#82b366;" vertex="1" parent="1">
          <mxGeometry x="80" y="150" width="120" height="50" as="geometry" />
        </mxCell>
        <mxCell id="qsvpix-lg48jj5NSU1BT-51" value="" style="edgeStyle=orthogonalEdgeStyle;rounded=0;orthogonalLoop=1;jettySize=auto;html=1;fontSize=15;" edge="1" parent="1" source="qsvpix-lg48jj5NSU1BT-3" target="qsvpix-lg48jj5NSU1BT-50">
          <mxGeometry relative="1" as="geometry" />
        </mxCell>
        <mxCell id="qsvpix-lg48jj5NSU1BT-3" value="遍历网格元素" style="rounded=1;whiteSpace=wrap;html=1;fillColor=#d5e8d4;strokeColor=#82b366;" vertex="1" parent="1">
          <mxGeometry x="80" y="230" width="120" height="50" as="geometry" />
        </mxCell>
        <mxCell id="qsvpix-lg48jj5NSU1BT-13" value="" style="edgeStyle=orthogonalEdgeStyle;rounded=0;orthogonalLoop=1;jettySize=auto;html=1;entryX=0.5;entryY=0;entryDx=0;entryDy=0;" edge="1" parent="1" source="qsvpix-lg48jj5NSU1BT-4" target="qsvpix-lg48jj5NSU1BT-6">
          <mxGeometry relative="1" as="geometry" />
        </mxCell>
        <mxCell id="qsvpix-lg48jj5NSU1BT-16" style="edgeStyle=orthogonalEdgeStyle;rounded=0;orthogonalLoop=1;jettySize=auto;html=1;exitX=1;exitY=0.5;exitDx=0;exitDy=0;entryX=1;entryY=0.5;entryDx=0;entryDy=0;" edge="1" parent="1" source="qsvpix-lg48jj5NSU1BT-4" target="qsvpix-lg48jj5NSU1BT-3">
          <mxGeometry relative="1" as="geometry" />
        </mxCell>
        <mxCell id="qsvpix-lg48jj5NSU1BT-4" value="网格元素 == 1 &amp;amp;&amp;amp;&lt;br&gt;该网格未被访问过" style="rhombus;whiteSpace=wrap;html=1;fillColor=#d5e8d4;strokeColor=#82b366;rounded=1;" vertex="1" parent="1">
          <mxGeometry x="40" y="425" width="200" height="80" as="geometry" />
        </mxCell>
        <mxCell id="qsvpix-lg48jj5NSU1BT-14" value="" style="edgeStyle=orthogonalEdgeStyle;rounded=0;orthogonalLoop=1;jettySize=auto;html=1;" edge="1" parent="1" source="qsvpix-lg48jj5NSU1BT-6" target="qsvpix-lg48jj5NSU1BT-7">
          <mxGeometry relative="1" as="geometry" />
        </mxCell>
        <mxCell id="qsvpix-lg48jj5NSU1BT-6" value="由该网格开始搜索" style="rounded=1;whiteSpace=wrap;html=1;fillColor=#d5e8d4;strokeColor=#82b366;" vertex="1" parent="1">
          <mxGeometry x="80" y="537" width="120" height="50" as="geometry" />
        </mxCell>
        <mxCell id="qsvpix-lg48jj5NSU1BT-49" style="edgeStyle=orthogonalEdgeStyle;rounded=0;orthogonalLoop=1;jettySize=auto;html=1;exitX=0;exitY=0.5;exitDx=0;exitDy=0;entryX=0;entryY=0.5;entryDx=0;entryDy=0;fontSize=15;" edge="1" parent="1" source="qsvpix-lg48jj5NSU1BT-7" target="qsvpix-lg48jj5NSU1BT-3">
          <mxGeometry relative="1" as="geometry">
            <Array as="points">
              <mxPoint x="30" y="642" />
              <mxPoint x="30" y="255" />
            </Array>
          </mxGeometry>
        </mxCell>
        <mxCell id="qsvpix-lg48jj5NSU1BT-7" value="res++" style="rounded=1;whiteSpace=wrap;html=1;fillColor=#d5e8d4;strokeColor=#82b366;" vertex="1" parent="1">
          <mxGeometry x="80" y="617" width="120" height="50" as="geometry" />
        </mxCell>
        <mxCell id="qsvpix-lg48jj5NSU1BT-8" value="返回res" style="rounded=1;whiteSpace=wrap;html=1;fillColor=#d5e8d4;strokeColor=#82b366;" vertex="1" parent="1">
          <mxGeometry x="310" y="325" width="120" height="50" as="geometry" />
        </mxCell>
        <mxCell id="qsvpix-lg48jj5NSU1BT-30" value="" style="edgeStyle=orthogonalEdgeStyle;rounded=0;orthogonalLoop=1;jettySize=auto;html=1;fontSize=15;" edge="1" parent="1" source="qsvpix-lg48jj5NSU1BT-17" target="qsvpix-lg48jj5NSU1BT-22">
          <mxGeometry relative="1" as="geometry" />
        </mxCell>
        <mxCell id="qsvpix-lg48jj5NSU1BT-17" value="由该网格开始搜索" style="rounded=1;whiteSpace=wrap;html=1;fillColor=#d5e8d4;strokeColor=#82b366;" vertex="1" parent="1">
          <mxGeometry x="532" y="70" width="120" height="50" as="geometry" />
        </mxCell>
        <mxCell id="qsvpix-lg48jj5NSU1BT-19" value="&lt;b style=&quot;font-size: 24px; text-align: left;&quot;&gt;由某网格开始搜索&lt;/b&gt;" style="text;html=1;strokeColor=none;fillColor=none;align=center;verticalAlign=middle;whiteSpace=wrap;rounded=0;" vertex="1" parent="1">
          <mxGeometry x="975" y="71" width="206" height="30" as="geometry" />
        </mxCell>
        <mxCell id="qsvpix-lg48jj5NSU1BT-20" value="&lt;div style=&quot;text-align: left;&quot;&gt;&lt;span style=&quot;font-size: 24px;&quot;&gt;&lt;b&gt;输入参数：&lt;/b&gt;&lt;/span&gt;&lt;/div&gt;&lt;div style=&quot;text-align: left;&quot;&gt;&lt;font style=&quot;font-size: 15px;&quot;&gt;&lt;span style=&quot;white-space: pre;&quot;&gt;	&lt;/span&gt;网格矩阵，行数，列数，访问标记矩阵&lt;/font&gt;&lt;/div&gt;" style="text;html=1;strokeColor=none;fillColor=none;align=center;verticalAlign=middle;whiteSpace=wrap;rounded=0;" vertex="1" parent="1">
          <mxGeometry x="971" y="101" width="320" height="100" as="geometry" />
        </mxCell>
        <mxCell id="qsvpix-lg48jj5NSU1BT-21" value="&lt;div style=&quot;text-align: left;&quot;&gt;&lt;span style=&quot;font-size: 24px;&quot;&gt;&lt;b&gt;返回类型：&lt;/b&gt;&lt;/span&gt;&lt;/div&gt;&lt;div style=&quot;text-align: left;&quot;&gt;&lt;font style=&quot;font-size: 15px;&quot;&gt;&lt;span style=&quot;white-space: pre;&quot;&gt;	&lt;/span&gt;void&lt;/font&gt;&lt;/div&gt;" style="text;html=1;strokeColor=none;fillColor=none;align=center;verticalAlign=middle;whiteSpace=wrap;rounded=0;" vertex="1" parent="1">
          <mxGeometry x="970" y="180" width="151" height="100" as="geometry" />
        </mxCell>
        <mxCell id="qsvpix-lg48jj5NSU1BT-31" value="" style="edgeStyle=orthogonalEdgeStyle;rounded=0;orthogonalLoop=1;jettySize=auto;html=1;fontSize=15;" edge="1" parent="1" source="qsvpix-lg48jj5NSU1BT-22" target="qsvpix-lg48jj5NSU1BT-23">
          <mxGeometry relative="1" as="geometry" />
        </mxCell>
        <mxCell id="qsvpix-lg48jj5NSU1BT-43" value="" style="edgeStyle=orthogonalEdgeStyle;rounded=0;orthogonalLoop=1;jettySize=auto;html=1;fontSize=15;" edge="1" parent="1" source="qsvpix-lg48jj5NSU1BT-22" target="qsvpix-lg48jj5NSU1BT-34">
          <mxGeometry relative="1" as="geometry" />
        </mxCell>
        <mxCell id="qsvpix-lg48jj5NSU1BT-22" value="行列指针出界 || &lt;br&gt;当前元素是水" style="rhombus;whiteSpace=wrap;html=1;fillColor=#d5e8d4;strokeColor=#82b366;rounded=1;" vertex="1" parent="1">
          <mxGeometry x="492" y="150" width="200" height="80" as="geometry" />
        </mxCell>
        <mxCell id="qsvpix-lg48jj5NSU1BT-32" value="" style="edgeStyle=orthogonalEdgeStyle;rounded=0;orthogonalLoop=1;jettySize=auto;html=1;fontSize=15;" edge="1" parent="1" source="qsvpix-lg48jj5NSU1BT-23" target="qsvpix-lg48jj5NSU1BT-24">
          <mxGeometry relative="1" as="geometry" />
        </mxCell>
        <mxCell id="qsvpix-lg48jj5NSU1BT-42" value="" style="edgeStyle=orthogonalEdgeStyle;rounded=0;orthogonalLoop=1;jettySize=auto;html=1;fontSize=15;" edge="1" parent="1" source="qsvpix-lg48jj5NSU1BT-23" target="qsvpix-lg48jj5NSU1BT-35">
          <mxGeometry relative="1" as="geometry" />
        </mxCell>
        <mxCell id="qsvpix-lg48jj5NSU1BT-23" value="当前元素已被访问" style="rhombus;whiteSpace=wrap;html=1;fillColor=#d5e8d4;strokeColor=#82b366;rounded=1;" vertex="1" parent="1">
          <mxGeometry x="492" y="256" width="200" height="80" as="geometry" />
        </mxCell>
        <mxCell id="qsvpix-lg48jj5NSU1BT-33" value="" style="edgeStyle=orthogonalEdgeStyle;rounded=0;orthogonalLoop=1;jettySize=auto;html=1;fontSize=15;" edge="1" parent="1" source="qsvpix-lg48jj5NSU1BT-24" target="qsvpix-lg48jj5NSU1BT-25">
          <mxGeometry relative="1" as="geometry" />
        </mxCell>
        <mxCell id="qsvpix-lg48jj5NSU1BT-41" value="" style="edgeStyle=orthogonalEdgeStyle;rounded=0;orthogonalLoop=1;jettySize=auto;html=1;fontSize=15;" edge="1" parent="1" source="qsvpix-lg48jj5NSU1BT-24" target="qsvpix-lg48jj5NSU1BT-36">
          <mxGeometry relative="1" as="geometry" />
        </mxCell>
        <mxCell id="qsvpix-lg48jj5NSU1BT-24" value="当前元素未越界" style="rhombus;whiteSpace=wrap;html=1;fillColor=#d5e8d4;strokeColor=#82b366;rounded=1;" vertex="1" parent="1">
          <mxGeometry x="492" y="365" width="200" height="80" as="geometry" />
        </mxCell>
        <mxCell id="qsvpix-lg48jj5NSU1BT-37" style="edgeStyle=orthogonalEdgeStyle;rounded=0;orthogonalLoop=1;jettySize=auto;html=1;exitX=0;exitY=0.5;exitDx=0;exitDy=0;entryX=0.5;entryY=0;entryDx=0;entryDy=0;fontSize=15;" edge="1" parent="1" source="qsvpix-lg48jj5NSU1BT-25" target="qsvpix-lg48jj5NSU1BT-26">
          <mxGeometry relative="1" as="geometry" />
        </mxCell>
        <mxCell id="qsvpix-lg48jj5NSU1BT-38" style="edgeStyle=orthogonalEdgeStyle;rounded=0;orthogonalLoop=1;jettySize=auto;html=1;exitX=0.25;exitY=1;exitDx=0;exitDy=0;entryX=0.5;entryY=0;entryDx=0;entryDy=0;fontSize=15;" edge="1" parent="1" source="qsvpix-lg48jj5NSU1BT-25" target="qsvpix-lg48jj5NSU1BT-27">
          <mxGeometry relative="1" as="geometry" />
        </mxCell>
        <mxCell id="qsvpix-lg48jj5NSU1BT-39" style="edgeStyle=orthogonalEdgeStyle;rounded=0;orthogonalLoop=1;jettySize=auto;html=1;exitX=0.75;exitY=1;exitDx=0;exitDy=0;entryX=0.5;entryY=0;entryDx=0;entryDy=0;fontSize=15;" edge="1" parent="1" source="qsvpix-lg48jj5NSU1BT-25" target="qsvpix-lg48jj5NSU1BT-28">
          <mxGeometry relative="1" as="geometry" />
        </mxCell>
        <mxCell id="qsvpix-lg48jj5NSU1BT-40" style="edgeStyle=orthogonalEdgeStyle;rounded=0;orthogonalLoop=1;jettySize=auto;html=1;exitX=1;exitY=0.5;exitDx=0;exitDy=0;entryX=0.5;entryY=0;entryDx=0;entryDy=0;fontSize=15;" edge="1" parent="1" source="qsvpix-lg48jj5NSU1BT-25" target="qsvpix-lg48jj5NSU1BT-29">
          <mxGeometry relative="1" as="geometry" />
        </mxCell>
        <mxCell id="qsvpix-lg48jj5NSU1BT-25" value="修改访问标记" style="rounded=1;whiteSpace=wrap;html=1;fillColor=#d5e8d4;strokeColor=#82b366;" vertex="1" parent="1">
          <mxGeometry x="532" y="480" width="120" height="50" as="geometry" />
        </mxCell>
        <mxCell id="qsvpix-lg48jj5NSU1BT-44" style="edgeStyle=orthogonalEdgeStyle;rounded=0;orthogonalLoop=1;jettySize=auto;html=1;exitX=0.5;exitY=1;exitDx=0;exitDy=0;entryX=1;entryY=0.5;entryDx=0;entryDy=0;fontSize=15;" edge="1" parent="1" source="qsvpix-lg48jj5NSU1BT-26" target="qsvpix-lg48jj5NSU1BT-17">
          <mxGeometry relative="1" as="geometry">
            <Array as="points">
              <mxPoint x="350" y="660" />
              <mxPoint x="910" y="660" />
              <mxPoint x="910" y="95" />
            </Array>
          </mxGeometry>
        </mxCell>
        <mxCell id="qsvpix-lg48jj5NSU1BT-26" value="当前指针右移一位" style="rounded=1;whiteSpace=wrap;html=1;fillColor=#d5e8d4;strokeColor=#82b366;" vertex="1" parent="1">
          <mxGeometry x="290" y="590" width="120" height="50" as="geometry" />
        </mxCell>
        <mxCell id="qsvpix-lg48jj5NSU1BT-45" style="edgeStyle=orthogonalEdgeStyle;rounded=0;orthogonalLoop=1;jettySize=auto;html=1;exitX=0.5;exitY=1;exitDx=0;exitDy=0;fontSize=15;" edge="1" parent="1" source="qsvpix-lg48jj5NSU1BT-27">
          <mxGeometry relative="1" as="geometry">
            <mxPoint x="510.25" y="660" as="targetPoint" />
          </mxGeometry>
        </mxCell>
        <mxCell id="qsvpix-lg48jj5NSU1BT-27" value="当前指针左移一位" style="rounded=1;whiteSpace=wrap;html=1;fillColor=#d5e8d4;strokeColor=#82b366;" vertex="1" parent="1">
          <mxGeometry x="450" y="590" width="120" height="50" as="geometry" />
        </mxCell>
        <mxCell id="qsvpix-lg48jj5NSU1BT-46" style="edgeStyle=orthogonalEdgeStyle;rounded=0;orthogonalLoop=1;jettySize=auto;html=1;exitX=0.5;exitY=1;exitDx=0;exitDy=0;fontSize=15;" edge="1" parent="1" source="qsvpix-lg48jj5NSU1BT-28">
          <mxGeometry relative="1" as="geometry">
            <mxPoint x="672" y="660" as="targetPoint" />
          </mxGeometry>
        </mxCell>
        <mxCell id="qsvpix-lg48jj5NSU1BT-28" value="当前指针上移一位" style="rounded=1;whiteSpace=wrap;html=1;fillColor=#d5e8d4;strokeColor=#82b366;" vertex="1" parent="1">
          <mxGeometry x="612" y="590" width="120" height="50" as="geometry" />
        </mxCell>
        <mxCell id="qsvpix-lg48jj5NSU1BT-47" style="edgeStyle=orthogonalEdgeStyle;rounded=0;orthogonalLoop=1;jettySize=auto;html=1;exitX=0.5;exitY=1;exitDx=0;exitDy=0;fontSize=15;" edge="1" parent="1" source="qsvpix-lg48jj5NSU1BT-29">
          <mxGeometry relative="1" as="geometry">
            <mxPoint x="832.1578947368421" y="660" as="targetPoint" />
          </mxGeometry>
        </mxCell>
        <mxCell id="qsvpix-lg48jj5NSU1BT-29" value="当前指针下移一位" style="rounded=1;whiteSpace=wrap;html=1;fillColor=#d5e8d4;strokeColor=#82b366;" vertex="1" parent="1">
          <mxGeometry x="772" y="590" width="120" height="50" as="geometry" />
        </mxCell>
        <mxCell id="qsvpix-lg48jj5NSU1BT-34" value="返回null" style="rounded=1;whiteSpace=wrap;html=1;fillColor=#d5e8d4;strokeColor=#82b366;" vertex="1" parent="1">
          <mxGeometry x="732" y="165" width="120" height="50" as="geometry" />
        </mxCell>
        <mxCell id="qsvpix-lg48jj5NSU1BT-35" value="返回null" style="rounded=1;whiteSpace=wrap;html=1;fillColor=#d5e8d4;strokeColor=#82b366;" vertex="1" parent="1">
          <mxGeometry x="741" y="271" width="120" height="50" as="geometry" />
        </mxCell>
        <mxCell id="qsvpix-lg48jj5NSU1BT-36" value="返回null" style="rounded=1;whiteSpace=wrap;html=1;fillColor=#d5e8d4;strokeColor=#82b366;" vertex="1" parent="1">
          <mxGeometry x="742" y="380" width="120" height="50" as="geometry" />
        </mxCell>
        <mxCell id="qsvpix-lg48jj5NSU1BT-48" value="No" style="text;html=1;strokeColor=none;fillColor=none;align=center;verticalAlign=middle;whiteSpace=wrap;rounded=0;fontSize=15;" vertex="1" parent="1">
          <mxGeometry x="270" y="292" width="40" height="24" as="geometry" />
        </mxCell>
        <mxCell id="qsvpix-lg48jj5NSU1BT-52" value="" style="edgeStyle=orthogonalEdgeStyle;rounded=0;orthogonalLoop=1;jettySize=auto;html=1;fontSize=15;" edge="1" parent="1" source="qsvpix-lg48jj5NSU1BT-50" target="qsvpix-lg48jj5NSU1BT-4">
          <mxGeometry relative="1" as="geometry" />
        </mxCell>
        <mxCell id="qsvpix-lg48jj5NSU1BT-54" style="edgeStyle=orthogonalEdgeStyle;rounded=0;orthogonalLoop=1;jettySize=auto;html=1;exitX=1;exitY=0.5;exitDx=0;exitDy=0;entryX=0;entryY=0.5;entryDx=0;entryDy=0;fontSize=15;" edge="1" parent="1" source="qsvpix-lg48jj5NSU1BT-50" target="qsvpix-lg48jj5NSU1BT-8">
          <mxGeometry relative="1" as="geometry" />
        </mxCell>
        <mxCell id="qsvpix-lg48jj5NSU1BT-50" value="遍历是否结束" style="rhombus;whiteSpace=wrap;html=1;fillColor=#d5e8d4;strokeColor=#82b366;rounded=1;" vertex="1" parent="1">
          <mxGeometry x="40" y="310" width="200" height="80" as="geometry" />
        </mxCell>
        <mxCell id="qsvpix-lg48jj5NSU1BT-55" value="No" style="text;html=1;strokeColor=none;fillColor=none;align=center;verticalAlign=middle;whiteSpace=wrap;rounded=0;fontSize=15;" vertex="1" parent="1">
          <mxGeometry x="150" y="390" width="40" height="24" as="geometry" />
        </mxCell>
        <mxCell id="qsvpix-lg48jj5NSU1BT-56" value="No" style="text;html=1;strokeColor=none;fillColor=none;align=center;verticalAlign=middle;whiteSpace=wrap;rounded=0;fontSize=15;" vertex="1" parent="1">
          <mxGeometry x="600" y="230" width="40" height="24" as="geometry" />
        </mxCell>
        <mxCell id="qsvpix-lg48jj5NSU1BT-57" value="No" style="text;html=1;strokeColor=none;fillColor=none;align=center;verticalAlign=middle;whiteSpace=wrap;rounded=0;fontSize=15;" vertex="1" parent="1">
          <mxGeometry x="600" y="338" width="40" height="24" as="geometry" />
        </mxCell>
        <mxCell id="qsvpix-lg48jj5NSU1BT-58" value="No" style="text;html=1;strokeColor=none;fillColor=none;align=center;verticalAlign=middle;whiteSpace=wrap;rounded=0;fontSize=15;" vertex="1" parent="1">
          <mxGeometry x="692" y="364" width="40" height="24" as="geometry" />
        </mxCell>
      </root>
    </mxGraphModel>
  </diagram>
  <diagram id="9_Mvas7baQSIVEgqEUAY" name="合并两个有序数组">
    <mxGraphModel dx="1955" dy="865" grid="1" gridSize="10" guides="1" tooltips="1" connect="1" arrows="1" fold="1" page="1" pageScale="1" pageWidth="827" pageHeight="1169" math="0" shadow="0">
      <root>
        <mxCell id="0" />
        <mxCell id="1" parent="0" />
        <mxCell id="t6KLUMZLfV4udP867PIW-15" value="" style="edgeStyle=orthogonalEdgeStyle;rounded=0;orthogonalLoop=1;jettySize=auto;html=1;fontSize=15;" edge="1" parent="1" source="t6KLUMZLfV4udP867PIW-1" target="t6KLUMZLfV4udP867PIW-8">
          <mxGeometry relative="1" as="geometry" />
        </mxCell>
        <mxCell id="t6KLUMZLfV4udP867PIW-1" value="初始化三个指针&lt;br&gt;p1 = m;&lt;br&gt;p2 = n;&lt;br&gt;p = m + n;" style="rounded=1;whiteSpace=wrap;html=1;fontSize=15;fillColor=#d5e8d4;strokeColor=#82b366;" vertex="1" parent="1">
          <mxGeometry x="70" y="14" width="120" height="70" as="geometry" />
        </mxCell>
        <mxCell id="t6KLUMZLfV4udP867PIW-4" value="nums[2]剩余部分复制到nums[1]" style="rounded=1;whiteSpace=wrap;html=1;fontSize=15;fillColor=#d5e8d4;strokeColor=#82b366;" vertex="1" parent="1">
          <mxGeometry x="270" y="240" width="120" height="40" as="geometry" />
        </mxCell>
        <mxCell id="t6KLUMZLfV4udP867PIW-17" value="" style="edgeStyle=orthogonalEdgeStyle;rounded=0;orthogonalLoop=1;jettySize=auto;html=1;fontSize=15;" edge="1" parent="1" source="t6KLUMZLfV4udP867PIW-6" target="t6KLUMZLfV4udP867PIW-10">
          <mxGeometry relative="1" as="geometry" />
        </mxCell>
        <mxCell id="t6KLUMZLfV4udP867PIW-22" value="" style="edgeStyle=orthogonalEdgeStyle;rounded=0;orthogonalLoop=1;jettySize=auto;html=1;fontSize=15;" edge="1" parent="1" source="t6KLUMZLfV4udP867PIW-6" target="t6KLUMZLfV4udP867PIW-4">
          <mxGeometry relative="1" as="geometry" />
        </mxCell>
        <mxCell id="t6KLUMZLfV4udP867PIW-6" value="nums2遍历结束 || &lt;br&gt;nums1已经滑到0？" style="rhombus;whiteSpace=wrap;html=1;fontSize=15;fillColor=#d5e8d4;strokeColor=#82b366;rounded=1;" vertex="1" parent="1">
          <mxGeometry x="40" y="220" width="180" height="80" as="geometry" />
        </mxCell>
        <mxCell id="t6KLUMZLfV4udP867PIW-16" value="" style="edgeStyle=orthogonalEdgeStyle;rounded=0;orthogonalLoop=1;jettySize=auto;html=1;fontSize=15;" edge="1" parent="1" source="t6KLUMZLfV4udP867PIW-8" target="t6KLUMZLfV4udP867PIW-6">
          <mxGeometry relative="1" as="geometry" />
        </mxCell>
        <mxCell id="t6KLUMZLfV4udP867PIW-8" value="遍历数组nums2" style="rounded=1;whiteSpace=wrap;html=1;fontSize=15;fillColor=#d5e8d4;strokeColor=#82b366;" vertex="1" parent="1">
          <mxGeometry x="70" y="130" width="120" height="40" as="geometry" />
        </mxCell>
        <mxCell id="t6KLUMZLfV4udP867PIW-20" value="" style="edgeStyle=orthogonalEdgeStyle;rounded=0;orthogonalLoop=1;jettySize=auto;html=1;fontSize=15;entryX=0.5;entryY=0;entryDx=0;entryDy=0;" edge="1" parent="1" source="t6KLUMZLfV4udP867PIW-10" target="t6KLUMZLfV4udP867PIW-13">
          <mxGeometry relative="1" as="geometry" />
        </mxCell>
        <mxCell id="t6KLUMZLfV4udP867PIW-23" value="" style="edgeStyle=orthogonalEdgeStyle;rounded=0;orthogonalLoop=1;jettySize=auto;html=1;fontSize=15;" edge="1" parent="1" source="t6KLUMZLfV4udP867PIW-10" target="t6KLUMZLfV4udP867PIW-11">
          <mxGeometry relative="1" as="geometry" />
        </mxCell>
        <mxCell id="t6KLUMZLfV4udP867PIW-10" value="nums2[p2] &amp;gt; &lt;br&gt;nums1[p1]?" style="rhombus;whiteSpace=wrap;html=1;fontSize=15;fillColor=#d5e8d4;strokeColor=#82b366;rounded=1;" vertex="1" parent="1">
          <mxGeometry x="40" y="334" width="180" height="80" as="geometry" />
        </mxCell>
        <mxCell id="t6KLUMZLfV4udP867PIW-25" value="" style="edgeStyle=orthogonalEdgeStyle;rounded=0;orthogonalLoop=1;jettySize=auto;html=1;fontSize=15;" edge="1" parent="1" source="t6KLUMZLfV4udP867PIW-11" target="t6KLUMZLfV4udP867PIW-12">
          <mxGeometry relative="1" as="geometry" />
        </mxCell>
        <mxCell id="t6KLUMZLfV4udP867PIW-11" value="nums2[p2] 放到 nums1[p]" style="rounded=1;whiteSpace=wrap;html=1;fontSize=15;fillColor=#d5e8d4;strokeColor=#82b366;" vertex="1" parent="1">
          <mxGeometry x="270" y="354" width="120" height="40" as="geometry" />
        </mxCell>
        <mxCell id="t6KLUMZLfV4udP867PIW-26" style="edgeStyle=orthogonalEdgeStyle;rounded=0;orthogonalLoop=1;jettySize=auto;html=1;exitX=0.5;exitY=1;exitDx=0;exitDy=0;entryX=0;entryY=0.5;entryDx=0;entryDy=0;fontSize=15;" edge="1" parent="1" source="t6KLUMZLfV4udP867PIW-12" target="t6KLUMZLfV4udP867PIW-6">
          <mxGeometry relative="1" as="geometry">
            <Array as="points">
              <mxPoint x="330" y="610" />
              <mxPoint x="20" y="610" />
              <mxPoint x="20" y="260" />
            </Array>
          </mxGeometry>
        </mxCell>
        <mxCell id="t6KLUMZLfV4udP867PIW-12" value="p2--;&lt;br&gt;p--;" style="rounded=1;whiteSpace=wrap;html=1;fontSize=15;fillColor=#d5e8d4;strokeColor=#82b366;" vertex="1" parent="1">
          <mxGeometry x="270" y="453" width="120" height="40" as="geometry" />
        </mxCell>
        <mxCell id="t6KLUMZLfV4udP867PIW-21" value="" style="edgeStyle=orthogonalEdgeStyle;rounded=0;orthogonalLoop=1;jettySize=auto;html=1;fontSize=15;" edge="1" parent="1" source="t6KLUMZLfV4udP867PIW-13" target="t6KLUMZLfV4udP867PIW-14">
          <mxGeometry relative="1" as="geometry" />
        </mxCell>
        <mxCell id="t6KLUMZLfV4udP867PIW-13" value="nums1[p1] 放到 nums1[p]" style="rounded=1;whiteSpace=wrap;html=1;fontSize=15;fillColor=#d5e8d4;strokeColor=#82b366;" vertex="1" parent="1">
          <mxGeometry x="70" y="453" width="120" height="40" as="geometry" />
        </mxCell>
        <mxCell id="t6KLUMZLfV4udP867PIW-27" style="edgeStyle=orthogonalEdgeStyle;rounded=0;orthogonalLoop=1;jettySize=auto;html=1;exitX=0.5;exitY=1;exitDx=0;exitDy=0;fontSize=15;" edge="1" parent="1" source="t6KLUMZLfV4udP867PIW-14">
          <mxGeometry relative="1" as="geometry">
            <mxPoint x="130.58823529411757" y="610" as="targetPoint" />
          </mxGeometry>
        </mxCell>
        <mxCell id="t6KLUMZLfV4udP867PIW-14" value="p1--;&lt;br&gt;p--;" style="rounded=1;whiteSpace=wrap;html=1;fontSize=15;fillColor=#d5e8d4;strokeColor=#82b366;" vertex="1" parent="1">
          <mxGeometry x="70" y="533" width="120" height="40" as="geometry" />
        </mxCell>
        <mxCell id="t6KLUMZLfV4udP867PIW-28" value="Yes" style="text;html=1;strokeColor=none;fillColor=none;align=center;verticalAlign=middle;whiteSpace=wrap;rounded=0;fontSize=15;" vertex="1" parent="1">
          <mxGeometry x="210" y="270" width="60" height="30" as="geometry" />
        </mxCell>
        <mxCell id="t6KLUMZLfV4udP867PIW-29" value="Yes" style="text;html=1;strokeColor=none;fillColor=none;align=center;verticalAlign=middle;whiteSpace=wrap;rounded=0;fontSize=15;" vertex="1" parent="1">
          <mxGeometry x="210" y="334" width="60" height="30" as="geometry" />
        </mxCell>
      </root>
    </mxGraphModel>
  </diagram>
  <diagram id="y00vSQevxntrHEGG0J0-" name="最长回文子串">
    <mxGraphModel dx="1203" dy="532" grid="1" gridSize="10" guides="1" tooltips="1" connect="1" arrows="1" fold="1" page="1" pageScale="1" pageWidth="827" pageHeight="1169" math="0" shadow="0">
      <root>
        <mxCell id="0" />
        <mxCell id="1" parent="0" />
        <mxCell id="AE2o82Jv24SUYZQmH0XC-16" value="" style="edgeStyle=orthogonalEdgeStyle;rounded=0;orthogonalLoop=1;jettySize=auto;html=1;fontSize=15;fontColor=#000000;" edge="1" parent="1" source="AE2o82Jv24SUYZQmH0XC-1" target="AE2o82Jv24SUYZQmH0XC-4">
          <mxGeometry relative="1" as="geometry" />
        </mxCell>
        <mxCell id="AE2o82Jv24SUYZQmH0XC-1" value="传入参数s" style="rounded=1;whiteSpace=wrap;html=1;fontSize=15;fillColor=#d5e8d4;strokeColor=#82b366;" vertex="1" parent="1">
          <mxGeometry x="99" y="50" width="120" height="50" as="geometry" />
        </mxCell>
        <mxCell id="AE2o82Jv24SUYZQmH0XC-18" value="" style="edgeStyle=orthogonalEdgeStyle;rounded=0;orthogonalLoop=1;jettySize=auto;html=1;fontSize=15;fontColor=#000000;" edge="1" parent="1" source="AE2o82Jv24SUYZQmH0XC-2" target="AE2o82Jv24SUYZQmH0XC-5">
          <mxGeometry relative="1" as="geometry" />
        </mxCell>
        <mxCell id="AE2o82Jv24SUYZQmH0XC-19" value="" style="edgeStyle=orthogonalEdgeStyle;rounded=0;orthogonalLoop=1;jettySize=auto;html=1;fontSize=15;fontColor=#000000;" edge="1" parent="1" source="AE2o82Jv24SUYZQmH0XC-2" target="AE2o82Jv24SUYZQmH0XC-6">
          <mxGeometry relative="1" as="geometry" />
        </mxCell>
        <mxCell id="AE2o82Jv24SUYZQmH0XC-2" value="len &amp;lt; 2" style="rhombus;whiteSpace=wrap;html=1;fontSize=15;fillColor=#d5e8d4;strokeColor=#82b366;rounded=1;" vertex="1" parent="1">
          <mxGeometry x="79" y="230" width="160" height="80" as="geometry" />
        </mxCell>
        <mxCell id="AE2o82Jv24SUYZQmH0XC-17" value="" style="edgeStyle=orthogonalEdgeStyle;rounded=0;orthogonalLoop=1;jettySize=auto;html=1;fontSize=15;fontColor=#000000;" edge="1" parent="1" source="AE2o82Jv24SUYZQmH0XC-4" target="AE2o82Jv24SUYZQmH0XC-2">
          <mxGeometry relative="1" as="geometry" />
        </mxCell>
        <mxCell id="AE2o82Jv24SUYZQmH0XC-4" value="极端情况检测" style="rounded=1;whiteSpace=wrap;html=1;fontSize=15;fillColor=#d5e8d4;strokeColor=#82b366;" vertex="1" parent="1">
          <mxGeometry x="99" y="140" width="120" height="50" as="geometry" />
        </mxCell>
        <mxCell id="AE2o82Jv24SUYZQmH0XC-5" value="return s" style="rounded=1;whiteSpace=wrap;html=1;fontSize=15;fillColor=#d5e8d4;strokeColor=#82b366;" vertex="1" parent="1">
          <mxGeometry x="289" y="245" width="120" height="50" as="geometry" />
        </mxCell>
        <mxCell id="AE2o82Jv24SUYZQmH0XC-20" value="" style="edgeStyle=orthogonalEdgeStyle;rounded=0;orthogonalLoop=1;jettySize=auto;html=1;fontSize=15;fontColor=#000000;" edge="1" parent="1" source="AE2o82Jv24SUYZQmH0XC-6" target="AE2o82Jv24SUYZQmH0XC-8">
          <mxGeometry relative="1" as="geometry" />
        </mxCell>
        <mxCell id="AE2o82Jv24SUYZQmH0XC-6" value="初始化&lt;br&gt;最大长度maxLen&lt;br&gt;res[]" style="rounded=1;whiteSpace=wrap;html=1;fontSize=15;fillColor=#d5e8d4;strokeColor=#82b366;" vertex="1" parent="1">
          <mxGeometry x="99" y="350" width="120" height="70" as="geometry" />
        </mxCell>
        <mxCell id="AE2o82Jv24SUYZQmH0XC-7" value="&lt;span style=&quot;font-family: monospace; font-size: 14px; letter-spacing: -0.2px; text-align: justify;&quot;&gt;res数组第一位记录起始位置，第二位记录长度&lt;/span&gt;" style="text;html=1;strokeColor=none;fillColor=none;align=center;verticalAlign=middle;whiteSpace=wrap;rounded=0;fontSize=15;labelBackgroundColor=none;fontStyle=1;fontColor=#000000;" vertex="1" parent="1">
          <mxGeometry x="259" y="370" width="160" height="30" as="geometry" />
        </mxCell>
        <mxCell id="AE2o82Jv24SUYZQmH0XC-21" value="" style="edgeStyle=orthogonalEdgeStyle;rounded=0;orthogonalLoop=1;jettySize=auto;html=1;fontSize=15;fontColor=#000000;" edge="1" parent="1" source="AE2o82Jv24SUYZQmH0XC-8" target="AE2o82Jv24SUYZQmH0XC-9">
          <mxGeometry relative="1" as="geometry" />
        </mxCell>
        <mxCell id="AE2o82Jv24SUYZQmH0XC-8" value="遍历数组" style="rounded=1;whiteSpace=wrap;html=1;fontSize=15;fillColor=#d5e8d4;strokeColor=#82b366;" vertex="1" parent="1">
          <mxGeometry x="99" y="470" width="120" height="50" as="geometry" />
        </mxCell>
        <mxCell id="AE2o82Jv24SUYZQmH0XC-22" value="" style="edgeStyle=orthogonalEdgeStyle;rounded=0;orthogonalLoop=1;jettySize=auto;html=1;fontSize=15;fontColor=#000000;" edge="1" parent="1" source="AE2o82Jv24SUYZQmH0XC-9" target="AE2o82Jv24SUYZQmH0XC-10">
          <mxGeometry relative="1" as="geometry" />
        </mxCell>
        <mxCell id="AE2o82Jv24SUYZQmH0XC-23" value="" style="edgeStyle=orthogonalEdgeStyle;rounded=0;orthogonalLoop=1;jettySize=auto;html=1;fontSize=15;fontColor=#000000;" edge="1" parent="1" source="AE2o82Jv24SUYZQmH0XC-9" target="AE2o82Jv24SUYZQmH0XC-11">
          <mxGeometry relative="1" as="geometry" />
        </mxCell>
        <mxCell id="AE2o82Jv24SUYZQmH0XC-9" value="遍历是否结束？" style="rhombus;whiteSpace=wrap;html=1;fontSize=15;fillColor=#d5e8d4;strokeColor=#82b366;rounded=1;" vertex="1" parent="1">
          <mxGeometry x="79" y="560" width="160" height="80" as="geometry" />
        </mxCell>
        <mxCell id="AE2o82Jv24SUYZQmH0XC-10" value="根据res取出结果" style="rounded=1;whiteSpace=wrap;html=1;fontSize=15;fillColor=#d5e8d4;strokeColor=#82b366;" vertex="1" parent="1">
          <mxGeometry x="299" y="575" width="120" height="50" as="geometry" />
        </mxCell>
        <mxCell id="AE2o82Jv24SUYZQmH0XC-24" value="" style="edgeStyle=orthogonalEdgeStyle;rounded=0;orthogonalLoop=1;jettySize=auto;html=1;fontSize=15;fontColor=#000000;" edge="1" parent="1" source="AE2o82Jv24SUYZQmH0XC-11" target="AE2o82Jv24SUYZQmH0XC-12">
          <mxGeometry relative="1" as="geometry" />
        </mxCell>
        <mxCell id="AE2o82Jv24SUYZQmH0XC-11" value="以当前元素分别做奇偶中心扩散" style="rounded=1;whiteSpace=wrap;html=1;fontSize=15;fillColor=#d5e8d4;strokeColor=#82b366;" vertex="1" parent="1">
          <mxGeometry x="49" y="680" width="220" height="50" as="geometry" />
        </mxCell>
        <mxCell id="AE2o82Jv24SUYZQmH0XC-25" value="" style="edgeStyle=orthogonalEdgeStyle;rounded=0;orthogonalLoop=1;jettySize=auto;html=1;fontSize=15;fontColor=#000000;" edge="1" parent="1" source="AE2o82Jv24SUYZQmH0XC-12" target="AE2o82Jv24SUYZQmH0XC-13">
          <mxGeometry relative="1" as="geometry" />
        </mxCell>
        <mxCell id="AE2o82Jv24SUYZQmH0XC-12" value="选最大的长度暂存" style="rounded=1;whiteSpace=wrap;html=1;fontSize=15;fillColor=#d5e8d4;strokeColor=#82b366;" vertex="1" parent="1">
          <mxGeometry x="74" y="780" width="170" height="50" as="geometry" />
        </mxCell>
        <mxCell id="AE2o82Jv24SUYZQmH0XC-26" value="" style="edgeStyle=orthogonalEdgeStyle;rounded=0;orthogonalLoop=1;jettySize=auto;html=1;fontSize=15;fontColor=#000000;" edge="1" parent="1" source="AE2o82Jv24SUYZQmH0XC-13" target="AE2o82Jv24SUYZQmH0XC-14">
          <mxGeometry relative="1" as="geometry" />
        </mxCell>
        <mxCell id="AE2o82Jv24SUYZQmH0XC-29" style="edgeStyle=orthogonalEdgeStyle;rounded=0;orthogonalLoop=1;jettySize=auto;html=1;exitX=0;exitY=0.5;exitDx=0;exitDy=0;fontSize=15;fontColor=#000000;" edge="1" parent="1" source="AE2o82Jv24SUYZQmH0XC-13">
          <mxGeometry relative="1" as="geometry">
            <mxPoint x="30" y="920.0588235294117" as="targetPoint" />
          </mxGeometry>
        </mxCell>
        <mxCell id="AE2o82Jv24SUYZQmH0XC-13" value="本次结果是否是&lt;br&gt;目前最大的？" style="rhombus;whiteSpace=wrap;html=1;fontSize=15;fillColor=#d5e8d4;strokeColor=#82b366;rounded=1;" vertex="1" parent="1">
          <mxGeometry x="79" y="880" width="160" height="80" as="geometry" />
        </mxCell>
        <mxCell id="AE2o82Jv24SUYZQmH0XC-28" style="edgeStyle=orthogonalEdgeStyle;rounded=0;orthogonalLoop=1;jettySize=auto;html=1;exitX=0.5;exitY=1;exitDx=0;exitDy=0;entryX=0;entryY=0.5;entryDx=0;entryDy=0;fontSize=15;fontColor=#000000;" edge="1" parent="1" source="AE2o82Jv24SUYZQmH0XC-14" target="AE2o82Jv24SUYZQmH0XC-8">
          <mxGeometry relative="1" as="geometry">
            <Array as="points">
              <mxPoint x="374" y="965" />
              <mxPoint x="30" y="965" />
              <mxPoint x="30" y="495" />
            </Array>
          </mxGeometry>
        </mxCell>
        <mxCell id="AE2o82Jv24SUYZQmH0XC-14" value="更新res与maxLen" style="rounded=1;whiteSpace=wrap;html=1;fontSize=15;fillColor=#d5e8d4;strokeColor=#82b366;" vertex="1" parent="1">
          <mxGeometry x="289" y="895" width="170" height="50" as="geometry" />
        </mxCell>
        <mxCell id="40phzqPXGbeI2MHR82ST-1" value="&lt;b style=&quot;font-size: 24px; text-align: left;&quot;&gt;由某点开始中心扩散&lt;/b&gt;" style="text;html=1;strokeColor=none;fillColor=none;align=center;verticalAlign=middle;whiteSpace=wrap;rounded=0;" vertex="1" parent="1">
          <mxGeometry x="975" y="71" width="225" height="30" as="geometry" />
        </mxCell>
        <mxCell id="40phzqPXGbeI2MHR82ST-2" value="&lt;div style=&quot;text-align: left;&quot;&gt;&lt;span style=&quot;font-size: 24px;&quot;&gt;&lt;b&gt;输入参数：&lt;/b&gt;&lt;/span&gt;&lt;/div&gt;&lt;div style=&quot;text-align: left;&quot;&gt;&lt;font style=&quot;font-size: 15px;&quot;&gt;&lt;span style=&quot;white-space: pre;&quot;&gt;	&lt;/span&gt;原始字符串，左中心点，右中心点&lt;/font&gt;&lt;/div&gt;" style="text;html=1;strokeColor=none;fillColor=none;align=center;verticalAlign=middle;whiteSpace=wrap;rounded=0;" vertex="1" parent="1">
          <mxGeometry x="952" y="101" width="320" height="100" as="geometry" />
        </mxCell>
        <mxCell id="40phzqPXGbeI2MHR82ST-3" value="&lt;div style=&quot;text-align: left;&quot;&gt;&lt;span style=&quot;font-size: 24px;&quot;&gt;&lt;b&gt;返回类型：&lt;/b&gt;&lt;/span&gt;&lt;/div&gt;&lt;div style=&quot;text-align: left;&quot;&gt;&lt;font style=&quot;font-size: 15px;&quot;&gt;&lt;span style=&quot;white-space: pre;&quot;&gt;	&lt;/span&gt;回文串起点，长度&lt;/font&gt;&lt;/div&gt;" style="text;html=1;strokeColor=none;fillColor=none;align=center;verticalAlign=middle;whiteSpace=wrap;rounded=0;" vertex="1" parent="1">
          <mxGeometry x="976" y="180" width="170" height="100" as="geometry" />
        </mxCell>
        <mxCell id="40phzqPXGbeI2MHR82ST-11" value="" style="edgeStyle=orthogonalEdgeStyle;rounded=0;orthogonalLoop=1;jettySize=auto;html=1;fontSize=15;fontColor=#000000;" edge="1" parent="1" source="40phzqPXGbeI2MHR82ST-4" target="40phzqPXGbeI2MHR82ST-6">
          <mxGeometry relative="1" as="geometry" />
        </mxCell>
        <mxCell id="40phzqPXGbeI2MHR82ST-4" value="传入参数&lt;br&gt;字符串s&lt;br&gt;左中心点 left&lt;br&gt;右中心点 right" style="rounded=1;whiteSpace=wrap;html=1;fontSize=15;fillColor=#d5e8d4;strokeColor=#82b366;" vertex="1" parent="1">
          <mxGeometry x="620" y="50" width="120" height="70" as="geometry" />
        </mxCell>
        <mxCell id="40phzqPXGbeI2MHR82ST-12" value="" style="edgeStyle=orthogonalEdgeStyle;rounded=0;orthogonalLoop=1;jettySize=auto;html=1;fontSize=15;fontColor=#000000;" edge="1" parent="1" source="40phzqPXGbeI2MHR82ST-6" target="40phzqPXGbeI2MHR82ST-7">
          <mxGeometry relative="1" as="geometry" />
        </mxCell>
        <mxCell id="40phzqPXGbeI2MHR82ST-6" value="初始化字符串长度len" style="rounded=1;whiteSpace=wrap;html=1;fontSize=15;fillColor=#d5e8d4;strokeColor=#82b366;" vertex="1" parent="1">
          <mxGeometry x="605" y="170" width="150" height="50" as="geometry" />
        </mxCell>
        <mxCell id="40phzqPXGbeI2MHR82ST-13" value="" style="edgeStyle=orthogonalEdgeStyle;rounded=0;orthogonalLoop=1;jettySize=auto;html=1;fontSize=15;fontColor=#000000;" edge="1" parent="1" source="40phzqPXGbeI2MHR82ST-7" target="40phzqPXGbeI2MHR82ST-8">
          <mxGeometry relative="1" as="geometry" />
        </mxCell>
        <mxCell id="40phzqPXGbeI2MHR82ST-14" style="edgeStyle=orthogonalEdgeStyle;rounded=0;orthogonalLoop=1;jettySize=auto;html=1;exitX=1;exitY=0.5;exitDx=0;exitDy=0;entryX=0.5;entryY=0;entryDx=0;entryDy=0;fontSize=15;fontColor=#000000;" edge="1" parent="1" source="40phzqPXGbeI2MHR82ST-7" target="40phzqPXGbeI2MHR82ST-10">
          <mxGeometry relative="1" as="geometry" />
        </mxCell>
        <mxCell id="40phzqPXGbeI2MHR82ST-7" value="left &amp;gt;= 0 &amp;amp;&amp;amp;&lt;br&gt;right &amp;lt; len?" style="rhombus;whiteSpace=wrap;html=1;fontSize=15;fillColor=#d5e8d4;strokeColor=#82b366;rounded=1;" vertex="1" parent="1">
          <mxGeometry x="600" y="270" width="160" height="80" as="geometry" />
        </mxCell>
        <mxCell id="40phzqPXGbeI2MHR82ST-15" value="" style="edgeStyle=orthogonalEdgeStyle;rounded=0;orthogonalLoop=1;jettySize=auto;html=1;fontSize=15;fontColor=#000000;" edge="1" parent="1" source="40phzqPXGbeI2MHR82ST-8" target="40phzqPXGbeI2MHR82ST-10">
          <mxGeometry relative="1" as="geometry" />
        </mxCell>
        <mxCell id="40phzqPXGbeI2MHR82ST-16" value="" style="edgeStyle=orthogonalEdgeStyle;rounded=0;orthogonalLoop=1;jettySize=auto;html=1;fontSize=15;fontColor=#000000;" edge="1" parent="1" source="40phzqPXGbeI2MHR82ST-8" target="40phzqPXGbeI2MHR82ST-9">
          <mxGeometry relative="1" as="geometry" />
        </mxCell>
        <mxCell id="40phzqPXGbeI2MHR82ST-8" value="s[left] == s[right]?" style="rhombus;whiteSpace=wrap;html=1;fontSize=15;fillColor=#d5e8d4;strokeColor=#82b366;rounded=1;" vertex="1" parent="1">
          <mxGeometry x="600" y="400" width="160" height="80" as="geometry" />
        </mxCell>
        <mxCell id="40phzqPXGbeI2MHR82ST-17" style="edgeStyle=orthogonalEdgeStyle;rounded=0;orthogonalLoop=1;jettySize=auto;html=1;exitX=0;exitY=0.5;exitDx=0;exitDy=0;entryX=0;entryY=0.5;entryDx=0;entryDy=0;fontSize=15;fontColor=#000000;" edge="1" parent="1" source="40phzqPXGbeI2MHR82ST-9" target="40phzqPXGbeI2MHR82ST-7">
          <mxGeometry relative="1" as="geometry" />
        </mxCell>
        <mxCell id="40phzqPXGbeI2MHR82ST-9" value="left--;&lt;br&gt;right++;" style="rounded=1;whiteSpace=wrap;html=1;fontSize=15;fillColor=#d5e8d4;strokeColor=#82b366;" vertex="1" parent="1">
          <mxGeometry x="605" y="532" width="150" height="50" as="geometry" />
        </mxCell>
        <mxCell id="40phzqPXGbeI2MHR82ST-10" value="返回结果" style="rounded=1;whiteSpace=wrap;html=1;fontSize=15;fillColor=#d5e8d4;strokeColor=#82b366;" vertex="1" parent="1">
          <mxGeometry x="810" y="415" width="150" height="50" as="geometry" />
        </mxCell>
        <mxCell id="40phzqPXGbeI2MHR82ST-18" value="Yes" style="text;html=1;strokeColor=none;fillColor=none;align=center;verticalAlign=middle;whiteSpace=wrap;rounded=0;labelBackgroundColor=none;fontSize=15;fontColor=#000000;" vertex="1" parent="1">
          <mxGeometry x="680" y="480" width="60" height="30" as="geometry" />
        </mxCell>
        <mxCell id="40phzqPXGbeI2MHR82ST-19" value="Yes" style="text;html=1;strokeColor=none;fillColor=none;align=center;verticalAlign=middle;whiteSpace=wrap;rounded=0;labelBackgroundColor=none;fontSize=15;fontColor=#000000;" vertex="1" parent="1">
          <mxGeometry x="670" y="360" width="60" height="30" as="geometry" />
        </mxCell>
        <mxCell id="40phzqPXGbeI2MHR82ST-20" value="Yes" style="text;html=1;strokeColor=none;fillColor=none;align=center;verticalAlign=middle;whiteSpace=wrap;rounded=0;labelBackgroundColor=none;fontSize=15;fontColor=#000000;" vertex="1" parent="1">
          <mxGeometry x="236" y="222" width="50" height="25" as="geometry" />
        </mxCell>
        <mxCell id="40phzqPXGbeI2MHR82ST-22" value="Yes" style="text;html=1;strokeColor=none;fillColor=none;align=center;verticalAlign=middle;whiteSpace=wrap;rounded=0;labelBackgroundColor=none;fontSize=15;fontColor=#000000;" vertex="1" parent="1">
          <mxGeometry x="244" y="550" width="50" height="25" as="geometry" />
        </mxCell>
        <mxCell id="40phzqPXGbeI2MHR82ST-23" value="Yes" style="text;html=1;strokeColor=none;fillColor=none;align=center;verticalAlign=middle;whiteSpace=wrap;rounded=0;labelBackgroundColor=none;fontSize=15;fontColor=#000000;" vertex="1" parent="1">
          <mxGeometry x="244" y="870" width="50" height="25" as="geometry" />
        </mxCell>
      </root>
    </mxGraphModel>
  </diagram>
</mxfile>
